<mxfile host="app.diagrams.net" agent="Mozilla/5.0 (Windows NT 10.0; Win64; x64) AppleWebKit/537.36 (KHTML, like Gecko) Chrome/129.0.0.0 Safari/537.36" version="24.7.17">
  <diagram name="Page-1" id="XJ8TK1zFYeb7lKsWjIyV">
    <mxGraphModel grid="1" page="1" gridSize="10" guides="1" tooltips="1" connect="1" arrows="1" fold="1" pageScale="1" pageWidth="850" pageHeight="1100" math="0" shadow="0">
      <root>
        <mxCell id="0" />
        <mxCell id="1" parent="0" />
        <mxCell id="l0F9-YEEMbQ4U_BEGOd4-1" value="Applicant" style="swimlane;fontStyle=1;align=center;verticalAlign=top;childLayout=stackLayout;horizontal=1;startSize=27.166666666666668;horizontalStack=0;resizeParent=1;resizeParentMax=0;resizeLast=0;collapsible=0;marginBottom=0;fillColor=#f8cecc;strokeColor=#b85450;" vertex="1" parent="1">
          <mxGeometry x="20" y="20" width="166" height="170.16666666666669" as="geometry" />
        </mxCell>
        <mxCell id="l0F9-YEEMbQ4U_BEGOd4-2" value="+int ApplicantID" style="text;strokeColor=none;fillColor=none;align=left;verticalAlign=top;spacingLeft=4;spacingRight=4;overflow=hidden;rotatable=0;points=[[0,0.5],[1,0.5]];portConstraint=eastwest;" vertex="1" parent="l0F9-YEEMbQ4U_BEGOd4-1">
          <mxGeometry y="27.166666666666668" width="166" height="27" as="geometry" />
        </mxCell>
        <mxCell id="l0F9-YEEMbQ4U_BEGOd4-3" value="+string Name" style="text;strokeColor=none;fillColor=none;align=left;verticalAlign=top;spacingLeft=4;spacingRight=4;overflow=hidden;rotatable=0;points=[[0,0.5],[1,0.5]];portConstraint=eastwest;" vertex="1" parent="l0F9-YEEMbQ4U_BEGOd4-1">
          <mxGeometry y="54.16666666666667" width="166" height="27" as="geometry" />
        </mxCell>
        <mxCell id="l0F9-YEEMbQ4U_BEGOd4-4" value="+string Email" style="text;strokeColor=none;fillColor=none;align=left;verticalAlign=top;spacingLeft=4;spacingRight=4;overflow=hidden;rotatable=0;points=[[0,0.5],[1,0.5]];portConstraint=eastwest;" vertex="1" parent="l0F9-YEEMbQ4U_BEGOd4-1">
          <mxGeometry y="81.16666666666667" width="166" height="27" as="geometry" />
        </mxCell>
        <mxCell id="l0F9-YEEMbQ4U_BEGOd4-5" value="+string Phone" style="text;strokeColor=none;fillColor=none;align=left;verticalAlign=top;spacingLeft=4;spacingRight=4;overflow=hidden;rotatable=0;points=[[0,0.5],[1,0.5]];portConstraint=eastwest;" vertex="1" parent="l0F9-YEEMbQ4U_BEGOd4-1">
          <mxGeometry y="108.16666666666667" width="166" height="27" as="geometry" />
        </mxCell>
        <mxCell id="l0F9-YEEMbQ4U_BEGOd4-6" style="line;strokeWidth=1;fillColor=none;align=left;verticalAlign=middle;spacingTop=-1;spacingLeft=3;spacingRight=3;rotatable=0;labelPosition=right;points=[];portConstraint=eastwest;strokeColor=inherit;" vertex="1" parent="l0F9-YEEMbQ4U_BEGOd4-1">
          <mxGeometry y="135.16666666666669" width="166" height="8" as="geometry" />
        </mxCell>
        <mxCell id="l0F9-YEEMbQ4U_BEGOd4-7" value="+SubmitApplication()" style="text;strokeColor=none;fillColor=none;align=left;verticalAlign=top;spacingLeft=4;spacingRight=4;overflow=hidden;rotatable=0;points=[[0,0.5],[1,0.5]];portConstraint=eastwest;" vertex="1" parent="l0F9-YEEMbQ4U_BEGOd4-1">
          <mxGeometry y="143.16666666666669" width="166" height="27" as="geometry" />
        </mxCell>
        <mxCell id="l0F9-YEEMbQ4U_BEGOd4-8" value="Job" style="swimlane;fontStyle=1;align=center;verticalAlign=top;childLayout=stackLayout;horizontal=1;startSize=27.166666666666668;horizontalStack=0;resizeParent=1;resizeParentMax=0;resizeLast=0;collapsible=0;marginBottom=0;fillColor=#f8cecc;strokeColor=#b85450;" vertex="1" parent="1">
          <mxGeometry x="236" y="20" width="168" height="170.16666666666669" as="geometry" />
        </mxCell>
        <mxCell id="l0F9-YEEMbQ4U_BEGOd4-9" value="+int JobID" style="text;strokeColor=none;fillColor=none;align=left;verticalAlign=top;spacingLeft=4;spacingRight=4;overflow=hidden;rotatable=0;points=[[0,0.5],[1,0.5]];portConstraint=eastwest;" vertex="1" parent="l0F9-YEEMbQ4U_BEGOd4-8">
          <mxGeometry y="27.166666666666668" width="168" height="27" as="geometry" />
        </mxCell>
        <mxCell id="l0F9-YEEMbQ4U_BEGOd4-10" value="+string Title" style="text;strokeColor=none;fillColor=none;align=left;verticalAlign=top;spacingLeft=4;spacingRight=4;overflow=hidden;rotatable=0;points=[[0,0.5],[1,0.5]];portConstraint=eastwest;" vertex="1" parent="l0F9-YEEMbQ4U_BEGOd4-8">
          <mxGeometry y="54.16666666666667" width="168" height="27" as="geometry" />
        </mxCell>
        <mxCell id="l0F9-YEEMbQ4U_BEGOd4-11" value="+string Description" style="text;strokeColor=none;fillColor=none;align=left;verticalAlign=top;spacingLeft=4;spacingRight=4;overflow=hidden;rotatable=0;points=[[0,0.5],[1,0.5]];portConstraint=eastwest;" vertex="1" parent="l0F9-YEEMbQ4U_BEGOd4-8">
          <mxGeometry y="81.16666666666667" width="168" height="27" as="geometry" />
        </mxCell>
        <mxCell id="l0F9-YEEMbQ4U_BEGOd4-12" value="+string RequiredSkills" style="text;strokeColor=none;fillColor=none;align=left;verticalAlign=top;spacingLeft=4;spacingRight=4;overflow=hidden;rotatable=0;points=[[0,0.5],[1,0.5]];portConstraint=eastwest;" vertex="1" parent="l0F9-YEEMbQ4U_BEGOd4-8">
          <mxGeometry y="108.16666666666667" width="168" height="27" as="geometry" />
        </mxCell>
        <mxCell id="l0F9-YEEMbQ4U_BEGOd4-13" style="line;strokeWidth=1;fillColor=none;align=left;verticalAlign=middle;spacingTop=-1;spacingLeft=3;spacingRight=3;rotatable=0;labelPosition=right;points=[];portConstraint=eastwest;strokeColor=inherit;" vertex="1" parent="l0F9-YEEMbQ4U_BEGOd4-8">
          <mxGeometry y="135.16666666666669" width="168" height="8" as="geometry" />
        </mxCell>
        <mxCell id="l0F9-YEEMbQ4U_BEGOd4-14" value="+AddJob()" style="text;strokeColor=none;fillColor=none;align=left;verticalAlign=top;spacingLeft=4;spacingRight=4;overflow=hidden;rotatable=0;points=[[0,0.5],[1,0.5]];portConstraint=eastwest;" vertex="1" parent="l0F9-YEEMbQ4U_BEGOd4-8">
          <mxGeometry y="143.16666666666669" width="168" height="27" as="geometry" />
        </mxCell>
        <mxCell id="l0F9-YEEMbQ4U_BEGOd4-15" value="ApplicationForm" style="swimlane;fontStyle=1;align=center;verticalAlign=top;childLayout=stackLayout;horizontal=1;startSize=26.523810250418528;horizontalStack=0;resizeParent=1;resizeParentMax=0;resizeLast=0;collapsible=0;marginBottom=0;fillColor=#f8cecc;strokeColor=#b85450;" vertex="1" parent="1">
          <mxGeometry x="125" y="241" width="172" height="196.52381025041853" as="geometry" />
        </mxCell>
        <mxCell id="l0F9-YEEMbQ4U_BEGOd4-16" value="+int FormID" style="text;strokeColor=none;fillColor=none;align=left;verticalAlign=top;spacingLeft=4;spacingRight=4;overflow=hidden;rotatable=0;points=[[0,0.5],[1,0.5]];portConstraint=eastwest;" vertex="1" parent="l0F9-YEEMbQ4U_BEGOd4-15">
          <mxGeometry y="26.523810250418528" width="172" height="27" as="geometry" />
        </mxCell>
        <mxCell id="l0F9-YEEMbQ4U_BEGOd4-17" value="+int ApplicantID" style="text;strokeColor=none;fillColor=none;align=left;verticalAlign=top;spacingLeft=4;spacingRight=4;overflow=hidden;rotatable=0;points=[[0,0.5],[1,0.5]];portConstraint=eastwest;" vertex="1" parent="l0F9-YEEMbQ4U_BEGOd4-15">
          <mxGeometry y="53.52381025041853" width="172" height="27" as="geometry" />
        </mxCell>
        <mxCell id="l0F9-YEEMbQ4U_BEGOd4-18" value="+int JobID" style="text;strokeColor=none;fillColor=none;align=left;verticalAlign=top;spacingLeft=4;spacingRight=4;overflow=hidden;rotatable=0;points=[[0,0.5],[1,0.5]];portConstraint=eastwest;" vertex="1" parent="l0F9-YEEMbQ4U_BEGOd4-15">
          <mxGeometry y="80.52381025041853" width="172" height="27" as="geometry" />
        </mxCell>
        <mxCell id="l0F9-YEEMbQ4U_BEGOd4-19" value="+date SubmissionDate" style="text;strokeColor=none;fillColor=none;align=left;verticalAlign=top;spacingLeft=4;spacingRight=4;overflow=hidden;rotatable=0;points=[[0,0.5],[1,0.5]];portConstraint=eastwest;" vertex="1" parent="l0F9-YEEMbQ4U_BEGOd4-15">
          <mxGeometry y="107.52381025041853" width="172" height="27" as="geometry" />
        </mxCell>
        <mxCell id="l0F9-YEEMbQ4U_BEGOd4-20" value="+string Status" style="text;strokeColor=none;fillColor=none;align=left;verticalAlign=top;spacingLeft=4;spacingRight=4;overflow=hidden;rotatable=0;points=[[0,0.5],[1,0.5]];portConstraint=eastwest;" vertex="1" parent="l0F9-YEEMbQ4U_BEGOd4-15">
          <mxGeometry y="134.52381025041853" width="172" height="27" as="geometry" />
        </mxCell>
        <mxCell id="l0F9-YEEMbQ4U_BEGOd4-21" style="line;strokeWidth=1;fillColor=none;align=left;verticalAlign=middle;spacingTop=-1;spacingLeft=3;spacingRight=3;rotatable=0;labelPosition=right;points=[];portConstraint=eastwest;strokeColor=inherit;" vertex="1" parent="l0F9-YEEMbQ4U_BEGOd4-15">
          <mxGeometry y="161.52381025041853" width="172" height="8" as="geometry" />
        </mxCell>
        <mxCell id="l0F9-YEEMbQ4U_BEGOd4-22" value="+ReviewApplication()" style="text;strokeColor=none;fillColor=none;align=left;verticalAlign=top;spacingLeft=4;spacingRight=4;overflow=hidden;rotatable=0;points=[[0,0.5],[1,0.5]];portConstraint=eastwest;" vertex="1" parent="l0F9-YEEMbQ4U_BEGOd4-15">
          <mxGeometry y="169.52381025041853" width="172" height="27" as="geometry" />
        </mxCell>
        <mxCell id="l0F9-YEEMbQ4U_BEGOd4-23" value="Invoice" style="swimlane;fontStyle=1;align=center;verticalAlign=top;childLayout=stackLayout;horizontal=1;startSize=27.166666666666668;horizontalStack=0;resizeParent=1;resizeParentMax=0;resizeLast=0;collapsible=0;marginBottom=0;fillColor=#f8cecc;strokeColor=#b85450;" vertex="1" parent="1">
          <mxGeometry x="135" y="485" width="153" height="170.16666666666669" as="geometry" />
        </mxCell>
        <mxCell id="l0F9-YEEMbQ4U_BEGOd4-24" value="+int InvoiceID" style="text;strokeColor=none;fillColor=none;align=left;verticalAlign=top;spacingLeft=4;spacingRight=4;overflow=hidden;rotatable=0;points=[[0,0.5],[1,0.5]];portConstraint=eastwest;" vertex="1" parent="l0F9-YEEMbQ4U_BEGOd4-23">
          <mxGeometry y="27.166666666666668" width="153" height="27" as="geometry" />
        </mxCell>
        <mxCell id="l0F9-YEEMbQ4U_BEGOd4-25" value="+int FormID" style="text;strokeColor=none;fillColor=none;align=left;verticalAlign=top;spacingLeft=4;spacingRight=4;overflow=hidden;rotatable=0;points=[[0,0.5],[1,0.5]];portConstraint=eastwest;" vertex="1" parent="l0F9-YEEMbQ4U_BEGOd4-23">
          <mxGeometry y="54.16666666666667" width="153" height="27" as="geometry" />
        </mxCell>
        <mxCell id="l0F9-YEEMbQ4U_BEGOd4-26" value="+double Amount" style="text;strokeColor=none;fillColor=none;align=left;verticalAlign=top;spacingLeft=4;spacingRight=4;overflow=hidden;rotatable=0;points=[[0,0.5],[1,0.5]];portConstraint=eastwest;" vertex="1" parent="l0F9-YEEMbQ4U_BEGOd4-23">
          <mxGeometry y="81.16666666666667" width="153" height="27" as="geometry" />
        </mxCell>
        <mxCell id="l0F9-YEEMbQ4U_BEGOd4-27" value="+date BillingDate" style="text;strokeColor=none;fillColor=none;align=left;verticalAlign=top;spacingLeft=4;spacingRight=4;overflow=hidden;rotatable=0;points=[[0,0.5],[1,0.5]];portConstraint=eastwest;" vertex="1" parent="l0F9-YEEMbQ4U_BEGOd4-23">
          <mxGeometry y="108.16666666666667" width="153" height="27" as="geometry" />
        </mxCell>
        <mxCell id="l0F9-YEEMbQ4U_BEGOd4-28" style="line;strokeWidth=1;fillColor=none;align=left;verticalAlign=middle;spacingTop=-1;spacingLeft=3;spacingRight=3;rotatable=0;labelPosition=right;points=[];portConstraint=eastwest;strokeColor=inherit;" vertex="1" parent="l0F9-YEEMbQ4U_BEGOd4-23">
          <mxGeometry y="135.16666666666669" width="153" height="8" as="geometry" />
        </mxCell>
        <mxCell id="l0F9-YEEMbQ4U_BEGOd4-29" value="+GenerateInvoice()" style="text;strokeColor=none;fillColor=none;align=left;verticalAlign=top;spacingLeft=4;spacingRight=4;overflow=hidden;rotatable=0;points=[[0,0.5],[1,0.5]];portConstraint=eastwest;" vertex="1" parent="l0F9-YEEMbQ4U_BEGOd4-23">
          <mxGeometry y="143.16666666666669" width="153" height="27" as="geometry" />
        </mxCell>
        <mxCell id="l0F9-YEEMbQ4U_BEGOd4-30" value="" style="curved=1;startArrow=none;endArrow=open;endSize=12;exitX=0.5;exitY=1;entryX=0;entryY=0;rounded=0;fillColor=#f8cecc;strokeColor=#b85450;" edge="1" parent="1" source="l0F9-YEEMbQ4U_BEGOd4-1" target="l0F9-YEEMbQ4U_BEGOd4-15">
          <mxGeometry relative="1" as="geometry">
            <Array as="points">
              <mxPoint x="103" y="216" />
            </Array>
          </mxGeometry>
        </mxCell>
        <mxCell id="l0F9-YEEMbQ4U_BEGOd4-31" value="1" style="edgeLabel;resizable=0;labelBackgroundColor=none;fontSize=12;align=right;verticalAlign=top;" vertex="1" parent="l0F9-YEEMbQ4U_BEGOd4-30">
          <mxGeometry x="-1" relative="1" as="geometry" />
        </mxCell>
        <mxCell id="l0F9-YEEMbQ4U_BEGOd4-32" value="0..*" style="edgeLabel;resizable=0;labelBackgroundColor=none;fontSize=12;align=left;verticalAlign=bottom;" vertex="1" parent="l0F9-YEEMbQ4U_BEGOd4-30">
          <mxGeometry x="1" relative="1" as="geometry" />
        </mxCell>
        <mxCell id="l0F9-YEEMbQ4U_BEGOd4-33" value="" style="curved=1;startArrow=none;endArrow=open;endSize=12;exitX=0.5;exitY=1;entryX=1;entryY=0;rounded=0;fillColor=#f8cecc;strokeColor=#b85450;" edge="1" parent="1" source="l0F9-YEEMbQ4U_BEGOd4-8" target="l0F9-YEEMbQ4U_BEGOd4-15">
          <mxGeometry relative="1" as="geometry">
            <Array as="points">
              <mxPoint x="320" y="216" />
            </Array>
          </mxGeometry>
        </mxCell>
        <mxCell id="l0F9-YEEMbQ4U_BEGOd4-34" value="1" style="edgeLabel;resizable=0;labelBackgroundColor=none;fontSize=12;align=right;verticalAlign=top;" vertex="1" parent="l0F9-YEEMbQ4U_BEGOd4-33">
          <mxGeometry x="-1" relative="1" as="geometry" />
        </mxCell>
        <mxCell id="l0F9-YEEMbQ4U_BEGOd4-35" value="0..*" style="edgeLabel;resizable=0;labelBackgroundColor=none;fontSize=12;align=left;verticalAlign=bottom;" vertex="1" parent="l0F9-YEEMbQ4U_BEGOd4-33">
          <mxGeometry x="1" relative="1" as="geometry" />
        </mxCell>
        <mxCell id="l0F9-YEEMbQ4U_BEGOd4-36" value="" style="curved=1;startArrow=none;endArrow=open;endSize=12;exitX=0.5;exitY=1;entryX=0.5;entryY=0;rounded=0;fillColor=#f8cecc;strokeColor=#b85450;" edge="1" parent="1" source="l0F9-YEEMbQ4U_BEGOd4-15" target="l0F9-YEEMbQ4U_BEGOd4-23">
          <mxGeometry relative="1" as="geometry">
            <Array as="points" />
          </mxGeometry>
        </mxCell>
        <mxCell id="l0F9-YEEMbQ4U_BEGOd4-37" value="1" style="edgeLabel;resizable=0;labelBackgroundColor=none;fontSize=12;align=right;verticalAlign=top;" vertex="1" parent="l0F9-YEEMbQ4U_BEGOd4-36">
          <mxGeometry x="-1" relative="1" as="geometry" />
        </mxCell>
        <mxCell id="l0F9-YEEMbQ4U_BEGOd4-38" value="1" style="edgeLabel;resizable=0;labelBackgroundColor=none;fontSize=12;align=left;verticalAlign=bottom;" vertex="1" parent="l0F9-YEEMbQ4U_BEGOd4-36">
          <mxGeometry x="1" relative="1" as="geometry" />
        </mxCell>
      </root>
    </mxGraphModel>
  </diagram>
</mxfile>
